{
    "asset" : {
        "generator" : "Khronos glTF Blender I/O v1.7.33",
        "version" : "2.0"
    },
    "scene" : 0,
    "scenes" : [
        {
            "name" : "Scene",
            "nodes" : [
                0
            ]
        }
    ],
    "nodes" : [
        {
            "mesh" : 0,
            "name" : "HighwayNew"
        }
    ],
    "materials" : [
        {
            "doubleSided" : true,
            "name" : "Material.005",
            "normalTexture" : {
                "index" : 0,
                "scale" : 10
            },
            "pbrMetallicRoughness" : {
                "baseColorTexture" : {
                    "index" : 1
                },
                "metallicFactor" : 0,
                "metallicRoughnessTexture" : {
                    "index" : 2
                }
            }
        }
    ],
    "meshes" : [
        {
            "name" : "Plane",
            "primitives" : [
                {
                    "attributes" : {
                        "POSITION" : 0,
                        "NORMAL" : 1,
                        "TEXCOORD_0" : 2
                    },
                    "indices" : 3,
                    "material" : 0
                }
            ]
        }
    ],
    "textures" : [
        {
            "sampler" : 0,
            "source" : 0
        },
        {
            "sampler" : 0,
            "source" : 1
        },
        {
            "sampler" : 0,
            "source" : 2
        }
    ],
    "images" : [
        {
            "mimeType" : "image/jpeg",
            "name" : "Road007_1K_NormalGL",
            "uri" : "Textures/Road007_1K_NormalGL.jpg"
        },
        {
            "mimeType" : "image/jpeg",
            "name" : "Road007_1K_Color",
            "uri" : "Textures/Road007_1K_Color.jpg"
        },
        {
            "mimeType" : "image/png",
            "name" : "Road007_1K_Roughness",
            "uri" : "Textures/Road007_1K_Roughness.png"
        }
    ],
    "accessors" : [
        {
            "bufferView" : 0,
            "componentType" : 5126,
            "count" : 130936,
            "max" : [
                826.8158569335938,
                128.9383544921875,
                1127.49462890625
            ],
            "min" : [
                337.4131774902344,
                84.7746810913086,
                -1527.6986083984375
            ],
            "type" : "VEC3"
        },
        {
            "bufferView" : 1,
            "componentType" : 5126,
            "count" : 130936,
            "type" : "VEC3"
        },
        {
            "bufferView" : 2,
            "componentType" : 5126,
            "count" : 130936,
            "type" : "VEC2"
        },
        {
            "bufferView" : 3,
            "componentType" : 5125,
            "count" : 196416,
            "type" : "SCALAR"
        }
    ],
    "bufferViews" : [
        {
            "buffer" : 0,
            "byteLength" : 1571232,
            "byteOffset" : 0
        },
        {
            "buffer" : 0,
            "byteLength" : 1571232,
            "byteOffset" : 1571232
        },
        {
            "buffer" : 0,
            "byteLength" : 1047488,
            "byteOffset" : 3142464
        },
        {
            "buffer" : 0,
            "byteLength" : 785664,
            "byteOffset" : 4189952
        }
    ],
    "samplers" : [
        {
            "magFilter" : 9729,
            "minFilter" : 9987
        }
    ],
    "buffers" : [
        {
            "byteLength" : 4975616,
            "uri" : "HighwayModel.bin"
        }
    ]
}
