{
    "asset" : {
        "generator" : "Khronos glTF Blender I/O v1.8.19",
        "version" : "2.0"
    },
    "scene" : 0,
    "scenes" : [
        {
            "name" : "Scene",
            "nodes" : [
                0
            ]
        }
    ],
    "nodes" : [
        {
            "mesh" : 0,
            "name" : "Light"
        }
    ],
    "materials" : [
        {
            "doubleSided" : true,
            "name" : "Metal16",
            "pbrMetallicRoughness" : {
                "baseColorFactor" : [
                    0.8900002241134644,
                    0.48952046036720276,
                    0,
                    1
                ],
                "metallicFactor" : 0.4000000059604645,
                "roughnessFactor" : 0.800000011920929
            }
        }
    ],
    "meshes" : [
        {
            "name" : "Metal16",
            "primitives" : [
                {
                    "attributes" : {
                        "POSITION" : 0,
                        "NORMAL" : 1,
                        "TEXCOORD_0" : 2
                    },
                    "indices" : 3,
                    "material" : 0
                }
            ]
        }
    ],
    "accessors" : [
        {
            "bufferView" : 0,
            "componentType" : 5126,
            "count" : 2874,
            "max" : [
                0.30881622433662415,
                0.3111439347267151,
                0.3108656406402588
            ],
            "min" : [
                -0.30880293250083923,
                -0.30587923526763916,
                -0.3028787672519684
            ],
            "type" : "VEC3"
        },
        {
            "bufferView" : 1,
            "componentType" : 5126,
            "count" : 2874,
            "type" : "VEC3"
        },
        {
            "bufferView" : 2,
            "componentType" : 5126,
            "count" : 2874,
            "type" : "VEC2"
        },
        {
            "bufferView" : 3,
            "componentType" : 5123,
            "count" : 2874,
            "type" : "SCALAR"
        }
    ],
    "bufferViews" : [
        {
            "buffer" : 0,
            "byteLength" : 34488,
            "byteOffset" : 0
        },
        {
            "buffer" : 0,
            "byteLength" : 34488,
            "byteOffset" : 34488
        },
        {
            "buffer" : 0,
            "byteLength" : 22992,
            "byteOffset" : 68976
        },
        {
            "buffer" : 0,
            "byteLength" : 5748,
            "byteOffset" : 91968
        }
    ],
    "buffers" : [
        {
            "byteLength" : 97716,
            "uri" : "data:application/octet-stream;base64,"
        }
    ]
}
