{
    "asset" : {
        "generator" : "Khronos glTF Blender I/O v1.7.33",
        "version" : "2.0"
    },
    "scene" : 0,
    "scenes" : [
        {
            "name" : "Scene",
            "nodes" : [
                0,
                1,
                2,
                3,
                4
            ]
        }
    ],
    "nodes" : [
        {
            "mesh" : 0,
            "name" : "Cube"
        },
        {
            "mesh" : 1,
            "name" : "Cylinder"
        },
        {
            "mesh" : 2,
            "name" : "Cylinder.001"
        },
        {
            "mesh" : 3,
            "name" : "Cylinder.002"
        },
        {
            "mesh" : 4,
            "name" : "Cylinder.003"
        }
    ],
    "materials" : [
        {
            "doubleSided" : true,
            "name" : "Material",
            "pbrMetallicRoughness" : {
                "baseColorFactor" : [
                    0.800000011920929,
                    0.800000011920929,
                    0.800000011920929,
                    1
                ],
                "metallicFactor" : 0,
                "roughnessFactor" : 0.4000000059604645
            }
        }
    ],
    "meshes" : [
        {
            "name" : "Cube",
            "primitives" : [
                {
                    "attributes" : {
                        "POSITION" : 0,
                        "NORMAL" : 1,
                        "TEXCOORD_0" : 2
                    },
                    "indices" : 3,
                    "material" : 0
                }
            ]
        },
        {
            "name" : "Cylinder",
            "primitives" : [
                {
                    "attributes" : {
                        "POSITION" : 4,
                        "NORMAL" : 5,
                        "TEXCOORD_0" : 6
                    },
                    "indices" : 7,
					"material" : 0
                }
            ]
        },
        {
            "name" : "Cylinder.002",
            "primitives" : [
                {
                    "attributes" : {
                        "POSITION" : 8,
                        "NORMAL" : 9,
                        "TEXCOORD_0" : 10
                    },
                    "indices" : 11,
					"material" : 0
                }
            ]
        },
        {
            "name" : "Cylinder.004",
            "primitives" : [
                {
                    "attributes" : {
                        "POSITION" : 12,
                        "NORMAL" : 13,
                        "TEXCOORD_0" : 14
                    },
                    "indices" : 15,
					"material" : 0
                }
            ]
        },
        {
            "name" : "Cylinder.005",
            "primitives" : [
                {
                    "attributes" : {
                        "POSITION" : 16,
                        "NORMAL" : 17,
                        "TEXCOORD_0" : 18
                    },
                    "indices" : 19,
					"material" : 0
                }
            ]
        }
    ],
    "accessors" : [
        {
            "bufferView" : 0,
            "componentType" : 5126,
            "count" : 486,
            "max" : [
                1,
                1.5,
                2.5037918090820312
            ],
            "min" : [
                -1,
                -0.0009744231356307864,
                -2.0999999046325684
            ],
            "type" : "VEC3"
        },
        {
            "bufferView" : 1,
            "componentType" : 5126,
            "count" : 486,
            "type" : "VEC3"
        },
        {
            "bufferView" : 2,
            "componentType" : 5126,
            "count" : 486,
            "type" : "VEC2"
        },
        {
            "bufferView" : 3,
            "componentType" : 5123,
            "count" : 2067,
            "type" : "SCALAR"
        },
        {
            "bufferView" : 4,
            "componentType" : 5126,
            "count" : 322,
            "max" : [
                1.0183420181274414,
                0.6419320702552795,
                2.1013400554656982
            ],
            "min" : [
                0.7265019416809082,
                -0.2335880845785141,
                1.2258198261260986
            ],
            "type" : "VEC3"
        },
        {
            "bufferView" : 5,
            "componentType" : 5126,
            "count" : 322,
            "type" : "VEC3"
        },
        {
            "bufferView" : 6,
            "componentType" : 5126,
            "count" : 322,
            "type" : "VEC2"
        },
        {
            "bufferView" : 7,
            "componentType" : 5123,
            "count" : 558,
            "type" : "SCALAR"
        },
        {
            "bufferView" : 8,
            "componentType" : 5126,
            "count" : 326,
            "max" : [
                1.0190989971160889,
                0.6283611059188843,
                -0.9336898326873779
            ],
            "min" : [
                0.7272589802742004,
                -0.24715907871723175,
                -1.8092100620269775
            ],
            "type" : "VEC3"
        },
        {
            "bufferView" : 9,
            "componentType" : 5126,
            "count" : 326,
            "type" : "VEC3"
        },
        {
            "bufferView" : 10,
            "componentType" : 5126,
            "count" : 326,
            "type" : "VEC2"
        },
        {
            "bufferView" : 11,
            "componentType" : 5123,
            "count" : 558,
            "type" : "SCALAR"
        },
        {
            "bufferView" : 12,
            "componentType" : 5126,
            "count" : 326,
            "max" : [
                -0.7272589206695557,
                0.6283611059188843,
                -0.9336898326873779
            ],
            "min" : [
                -1.0190991163253784,
                -0.24715907871723175,
                -1.8092100620269775
            ],
            "type" : "VEC3"
        },
        {
            "bufferView" : 13,
            "componentType" : 5126,
            "count" : 326,
            "type" : "VEC3"
        },
        {
            "bufferView" : 14,
            "componentType" : 5126,
            "count" : 326,
            "type" : "VEC2"
        },
        {
            "bufferView" : 15,
            "componentType" : 5123,
            "count" : 558,
            "type" : "SCALAR"
        },
        {
            "bufferView" : 16,
            "componentType" : 5126,
            "count" : 322,
            "max" : [
                -0.7265019416809082,
                0.6419320702552795,
                2.1013400554656982
            ],
            "min" : [
                -1.0183420181274414,
                -0.2335880845785141,
                1.2258198261260986
            ],
            "type" : "VEC3"
        },
        {
            "bufferView" : 17,
            "componentType" : 5126,
            "count" : 322,
            "type" : "VEC3"
        },
        {
            "bufferView" : 18,
            "componentType" : 5126,
            "count" : 322,
            "type" : "VEC2"
        },
        {
            "bufferView" : 19,
            "componentType" : 5123,
            "count" : 558,
            "type" : "SCALAR"
        }
    ],
    "bufferViews" : [
        {
            "buffer" : 0,
            "byteLength" : 5832,
            "byteOffset" : 0
        },
        {
            "buffer" : 0,
            "byteLength" : 5832,
            "byteOffset" : 5832
        },
        {
            "buffer" : 0,
            "byteLength" : 3888,
            "byteOffset" : 11664
        },
        {
            "buffer" : 0,
            "byteLength" : 4134,
            "byteOffset" : 15552
        },
        {
            "buffer" : 0,
            "byteLength" : 3864,
            "byteOffset" : 19688
        },
        {
            "buffer" : 0,
            "byteLength" : 3864,
            "byteOffset" : 23552
        },
        {
            "buffer" : 0,
            "byteLength" : 2576,
            "byteOffset" : 27416
        },
        {
            "buffer" : 0,
            "byteLength" : 1116,
            "byteOffset" : 29992
        },
        {
            "buffer" : 0,
            "byteLength" : 3912,
            "byteOffset" : 31108
        },
        {
            "buffer" : 0,
            "byteLength" : 3912,
            "byteOffset" : 35020
        },
        {
            "buffer" : 0,
            "byteLength" : 2608,
            "byteOffset" : 38932
        },
        {
            "buffer" : 0,
            "byteLength" : 1116,
            "byteOffset" : 41540
        },
        {
            "buffer" : 0,
            "byteLength" : 3912,
            "byteOffset" : 42656
        },
        {
            "buffer" : 0,
            "byteLength" : 3912,
            "byteOffset" : 46568
        },
        {
            "buffer" : 0,
            "byteLength" : 2608,
            "byteOffset" : 50480
        },
        {
            "buffer" : 0,
            "byteLength" : 1116,
            "byteOffset" : 53088
        },
        {
            "buffer" : 0,
            "byteLength" : 3864,
            "byteOffset" : 54204
        },
        {
            "buffer" : 0,
            "byteLength" : 3864,
            "byteOffset" : 58068
        },
        {
            "buffer" : 0,
            "byteLength" : 2576,
            "byteOffset" : 61932
        },
        {
            "buffer" : 0,
            "byteLength" : 1116,
            "byteOffset" : 64508
        }
    ],
    "buffers" : [
        {
            "byteLength" : 65624,
            "uri" : "data:application/octet-stream;base64,"
        }
    ]
}
