{
    "asset" : {
        "generator" : "Khronos glTF Blender I/O v1.8.19",
        "version" : "2.0"
    },
    "scene" : 0,
    "scenes" : [
        {
            "name" : "Scene",
            "nodes" : [
                0
            ]
        }
    ],
    "nodes" : [
        {
            "mesh" : 0,
            "name" : "Plane"
        }
    ],
    "materials" : [
        {
            "doubleSided" : true,
            "name" : "Material",
            "pbrMetallicRoughness" : {
                "baseColorFactor" : [
                    0.19358937442302704,
                    0.19598503410816193,
                    0.031091982498764992,
                    1
                ],
                "metallicFactor" : 0,
                "roughnessFactor" : 0.800000011920929
            }
        }
    ],
    "meshes" : [
        {
            "name" : "Plane",
            "primitives" : [
                {
                    "attributes" : {
                        "POSITION" : 0,
                        "NORMAL" : 1,
                        "TEXCOORD_0" : 2
                    },
                    "indices" : 3,
                    "material" : 0
                }
            ]
        }
    ],
    "accessors" : [
        {
            "bufferView" : 0,
            "componentType" : 5126,
            "count" : 54003,
            "max" : [
                25.000003814697266,
                2.1709933280944824,
                9.722944259643555
            ],
            "min" : [
                -25.000003814697266,
                0,
                -25.000003814697266
            ],
            "type" : "VEC3"
        },
        {
            "bufferView" : 1,
            "componentType" : 5126,
            "count" : 54003,
            "type" : "VEC3"
        },
        {
            "bufferView" : 2,
            "componentType" : 5126,
            "count" : 54003,
            "type" : "VEC2"
        },
        {
            "bufferView" : 3,
            "componentType" : 5123,
            "count" : 68352,
            "type" : "SCALAR"
        }
    ],
    "bufferViews" : [
        {
            "buffer" : 0,
            "byteLength" : 648036,
            "byteOffset" : 0
        },
        {
            "buffer" : 0,
            "byteLength" : 648036,
            "byteOffset" : 648036
        },
        {
            "buffer" : 0,
            "byteLength" : 432024,
            "byteOffset" : 1296072
        },
        {
            "buffer" : 0,
            "byteLength" : 136704,
            "byteOffset" : 1728096
        }
    ],
    "buffers" : [
        {
            "byteLength" : 1864800,
            "uri" : "data:application/octet-stream;base64,"
        }
    ]
}
