{
    "asset" : {
        "generator" : "Khronos glTF Blender I/O v1.7.33",
        "version" : "2.0"
    },
    "scene" : 0,
    "scenes" : [
        {
            "name" : "Scene",
            "nodes" : [
                0
            ]
        }
    ],
    "nodes" : [
        {
            "mesh" : 0,
            "name" : "Plane"
        }
    ],
    "meshes" : [
        {
            "name" : "Plane",
            "primitives" : [
                {
                    "attributes" : {
                        "POSITION" : 0,
                        "NORMAL" : 1,
                        "TEXCOORD_0" : 2
                    },
                    "indices" : 3
                }
            ]
        }
    ],
    "accessors" : [
        {
            "bufferView" : 0,
            "componentType" : 5126,
            "count" : 38844,
            "max" : [
                25.000003814697266,
                2.1709933280944824,
                9.722944259643555
            ],
            "min" : [
                -25.000003814697266,
                0,
                -25.000003814697266
            ],
            "type" : "VEC3"
        },
        {
            "bufferView" : 1,
            "componentType" : 5126,
            "count" : 38844,
            "type" : "VEC3"
        },
        {
            "bufferView" : 2,
            "componentType" : 5126,
            "count" : 38844,
            "type" : "VEC2"
        },
        {
            "bufferView" : 3,
            "componentType" : 5123,
            "count" : 68352,
            "type" : "SCALAR"
        }
    ],
    "bufferViews" : [
        {
            "buffer" : 0,
            "byteLength" : 466128,
            "byteOffset" : 0
        },
        {
            "buffer" : 0,
            "byteLength" : 466128,
            "byteOffset" : 466128
        },
        {
            "buffer" : 0,
            "byteLength" : 310752,
            "byteOffset" : 932256
        },
        {
            "buffer" : 0,
            "byteLength" : 136704,
            "byteOffset" : 1243008
        }
    ],
    "buffers" : [
        {
            "byteLength" : 1379712,
            "uri" : "data:application/octet-stream;base64,"
        }
    ]
}
