{
    "asset" : {
        "generator" : "Khronos glTF Blender I/O v1.7.33",
        "version" : "2.0"
    },
    "scene" : 0,
    "scenes" : [
        {
            "name" : "Scene",
            "nodes" : [
                1
            ]
        }
    ],
    "nodes" : [
        {
            "mesh" : 0,
            "name" : "leaves"
        },
        {
            "children" : [
                0
            ],
            "mesh" : 1,
            "name" : "tree"
        }
    ],
    "materials" : [
        {
            "doubleSided" : true,
            "name" : "Material.006",
            "pbrMetallicRoughness" : {
                "baseColorTexture" : {
                    "index" : 0
                },
                "metallicFactor" : 0,
                "roughnessFactor" : 0.5
            }
        },
        {
            "doubleSided" : true,
            "name" : "Material.005",
            "pbrMetallicRoughness" : {
                "baseColorTexture" : {
                    "index" : 1
                },
                "metallicFactor" : 0,
                "roughnessFactor" : 0.5
            }
        }
    ],
    "meshes" : [
        {
            "name" : "leaves.007",
            "primitives" : [
                {
                    "attributes" : {
                        "POSITION" : 0,
                        "NORMAL" : 1,
                        "TEXCOORD_0" : 2
                    },
                    "indices" : 3,
                    "material" : 0
                }
            ]
        },
        {
            "name" : "tree.007",
            "primitives" : [
                {
                    "attributes" : {
                        "POSITION" : 4,
                        "NORMAL" : 5,
                        "TEXCOORD_0" : 6
                    },
                    "indices" : 7,
                    "material" : 1
                }
            ]
        }
    ],
    "textures" : [
        {
            "sampler" : 0,
            "source" : 0
        },
        {
            "sampler" : 0,
            "source" : 1
        }
    ],
    "images" : [
        {
            "mimeType" : "image/png",
            "name" : "PineBranch",
            "uri" : "Textures/PineBranch.png"
        },
        {
            "mimeType" : "image/jpeg",
            "name" : "bark_brown_01_diff_4k",
            "uri" : "Textures/bark_brown_01_diff_4k.jpg"
        }
    ],
    "accessors" : [
        {
            "bufferView" : 0,
            "componentType" : 5126,
            "count" : 1908,
            "max" : [
                1.774842381477356,
                8.388825416564941,
                1.6379907131195068
            ],
            "min" : [
                -1.9189714193344116,
                2.916328191757202,
                -1.8806030750274658
            ],
            "type" : "VEC3"
        },
        {
            "bufferView" : 1,
            "componentType" : 5126,
            "count" : 1908,
            "type" : "VEC3"
        },
        {
            "bufferView" : 2,
            "componentType" : 5126,
            "count" : 1908,
            "type" : "VEC2"
        },
        {
            "bufferView" : 3,
            "componentType" : 5123,
            "count" : 2862,
            "type" : "SCALAR"
        },
        {
            "bufferView" : 4,
            "componentType" : 5126,
            "count" : 1130,
            "max" : [
                1.3094364404678345,
                7.964794158935547,
                1.2650318145751953
            ],
            "min" : [
                -1.5298292636871338,
                0,
                -1.4053466320037842
            ],
            "type" : "VEC3"
        },
        {
            "bufferView" : 5,
            "componentType" : 5126,
            "count" : 1130,
            "type" : "VEC3"
        },
        {
            "bufferView" : 6,
            "componentType" : 5126,
            "count" : 1130,
            "type" : "VEC2"
        },
        {
            "bufferView" : 7,
            "componentType" : 5123,
            "count" : 4248,
            "type" : "SCALAR"
        }
    ],
    "bufferViews" : [
        {
            "buffer" : 0,
            "byteLength" : 22896,
            "byteOffset" : 0
        },
        {
            "buffer" : 0,
            "byteLength" : 22896,
            "byteOffset" : 22896
        },
        {
            "buffer" : 0,
            "byteLength" : 15264,
            "byteOffset" : 45792
        },
        {
            "buffer" : 0,
            "byteLength" : 5724,
            "byteOffset" : 61056
        },
        {
            "buffer" : 0,
            "byteLength" : 13560,
            "byteOffset" : 66780
        },
        {
            "buffer" : 0,
            "byteLength" : 13560,
            "byteOffset" : 80340
        },
        {
            "buffer" : 0,
            "byteLength" : 9040,
            "byteOffset" : 93900
        },
        {
            "buffer" : 0,
            "byteLength" : 8496,
            "byteOffset" : 102940
        }
    ],
    "samplers" : [
        {
            "magFilter" : 9729,
            "minFilter" : 9987
        }
    ],
    "buffers" : [
        {
            "byteLength" : 111436,
            "uri" : "test.bin"
        }
    ]
}
