{
    "asset" : {
        "generator" : "Khronos glTF Blender I/O v1.7.33",
        "version" : "2.0"
    },
    "scene" : 0,
    "scenes" : [
        {
            "name" : "Scene",
            "nodes" : [
                0
            ]
        }
    ],
    "nodes" : [
        {
            "mesh" : 0,
            "name" : "Wheel"
        }
    ],
    "materials" : [
        {
            "doubleSided" : true,
            "name" : "Material.003",
            "pbrMetallicRoughness" : {
                "baseColorFactor" : [
                    0.017181742936372757,
                    0.01627415232360363,
                    0.016738519072532654,
                    1
                ],
                "metallicFactor" : 0,
                "roughnessFactor" : 0.7514286041259766
            }
        },
        {
            "doubleSided" : true,
            "name" : "Material.004",
            "pbrMetallicRoughness" : {
                "baseColorFactor" : [
                    0.2018672227859497,
                    0.2018672227859497,
                    0.2018672227859497,
                    1
                ],
                "metallicFactor" : 0.3942857086658478,
                "roughnessFactor" : 0.23714286088943481
            }
        }
    ],
    "meshes" : [
        {
            "name" : "WheelPairRear.001",
            "primitives" : [
                {
                    "attributes" : {
                        "POSITION" : 0,
                        "NORMAL" : 1,
                        "TEXCOORD_0" : 2
                    },
                    "indices" : 3,
                    "material" : 0
                },
                {
                    "attributes" : {
                        "POSITION" : 4,
                        "NORMAL" : 5,
                        "TEXCOORD_0" : 6
                    },
                    "indices" : 7,
                    "material" : 1
                }
            ]
        }
    ],
    "accessors" : [
        {
            "bufferView" : 0,
            "componentType" : 5126,
            "count" : 320,
            "max" : [
                0.13170772790908813,
                0.32103949785232544,
                0.32040080428123474
            ],
            "min" : [
                -0.1295899748802185,
                -0.320363849401474,
                -0.32048794627189636
            ],
            "type" : "VEC3"
        },
        {
            "bufferView" : 1,
            "componentType" : 5126,
            "count" : 320,
            "type" : "VEC3"
        },
        {
            "bufferView" : 2,
            "componentType" : 5126,
            "count" : 320,
            "type" : "VEC2"
        },
        {
            "bufferView" : 3,
            "componentType" : 5123,
            "count" : 576,
            "type" : "SCALAR"
        },
        {
            "bufferView" : 4,
            "componentType" : 5126,
            "count" : 764,
            "max" : [
                0.13170772790908813,
                0.24950872361660004,
                0.2499830722808838
            ],
            "min" : [
                -0.12934409081935883,
                -0.24883295595645905,
                -0.24895714223384857
            ],
            "type" : "VEC3"
        },
        {
            "bufferView" : 5,
            "componentType" : 5126,
            "count" : 764,
            "type" : "VEC3"
        },
        {
            "bufferView" : 6,
            "componentType" : 5126,
            "count" : 764,
            "type" : "VEC2"
        },
        {
            "bufferView" : 7,
            "componentType" : 5123,
            "count" : 1332,
            "type" : "SCALAR"
        }
    ],
    "bufferViews" : [
        {
            "buffer" : 0,
            "byteLength" : 3840,
            "byteOffset" : 0
        },
        {
            "buffer" : 0,
            "byteLength" : 3840,
            "byteOffset" : 3840
        },
        {
            "buffer" : 0,
            "byteLength" : 2560,
            "byteOffset" : 7680
        },
        {
            "buffer" : 0,
            "byteLength" : 1152,
            "byteOffset" : 10240
        },
        {
            "buffer" : 0,
            "byteLength" : 9168,
            "byteOffset" : 11392
        },
        {
            "buffer" : 0,
            "byteLength" : 9168,
            "byteOffset" : 20560
        },
        {
            "buffer" : 0,
            "byteLength" : 6112,
            "byteOffset" : 29728
        },
        {
            "buffer" : 0,
            "byteLength" : 2664,
            "byteOffset" : 35840
        }
    ],
    "buffers" : [
        {
            "byteLength" : 38504,
            "uri" : "data:application/octet-stream;base64,"
        }
    ]
}
