{
    "asset" : {
        "generator" : "Khronos glTF Blender I/O v1.7.33",
        "version" : "2.0"
    },
    "scene" : 0,
    "scenes" : [
        {
            "name" : "Scene",
            "nodes" : [
                0
            ]
        }
    ],
    "nodes" : [
        {
            "mesh" : 0,
            "name" : "Plane",
            "rotation" : [
                0,
                0,
                -0.7071068286895752,
                0.7071068286895752
            ],
            "translation" : [
                0,
                1,
                0
            ]
        }
    ],
    "meshes" : [
        {
            "name" : "Plane",
            "primitives" : [
                {
                    "attributes" : {
                        "POSITION" : 0,
                        "NORMAL" : 1,
                        "TEXCOORD_0" : 2
                    },
                    "indices" : 3
                }
            ]
        }
    ],
    "accessors" : [
        {
            "bufferView" : 0,
            "componentType" : 5126,
            "count" : 55211,
            "max" : [
                1.0000001192092896,
                0,
                11.000001907348633
            ],
            "min" : [
                -5.000000476837158,
                -0.2878798246383667,
                -11.000001907348633
            ],
            "type" : "VEC3"
        },
        {
            "bufferView" : 1,
            "componentType" : 5126,
            "count" : 55211,
            "type" : "VEC3"
        },
        {
            "bufferView" : 2,
            "componentType" : 5126,
            "count" : 55211,
            "type" : "VEC2"
        },
        {
            "bufferView" : 3,
            "componentType" : 5123,
            "count" : 106752,
            "type" : "SCALAR"
        }
    ],
    "bufferViews" : [
        {
            "buffer" : 0,
            "byteLength" : 662532,
            "byteOffset" : 0
        },
        {
            "buffer" : 0,
            "byteLength" : 662532,
            "byteOffset" : 662532
        },
        {
            "buffer" : 0,
            "byteLength" : 441688,
            "byteOffset" : 1325064
        },
        {
            "buffer" : 0,
            "byteLength" : 213504,
            "byteOffset" : 1766752
        }
    ],
    "buffers" : [
        {
            "byteLength" : 1980256,
            "uri" : "data:application/octet-stream;base64,"
        }
    ]
}
